<mxfile host="app.diagrams.net" modified="2021-11-01T12:34:16.185Z" agent="5.0 (Macintosh; Intel Mac OS X 10_15_7) AppleWebKit/537.36 (KHTML, like Gecko) Chrome/95.0.4638.54 Safari/537.36" etag="d9g1bs0GhfpeiR_qUdbK" version="15.5.8" type="github" pages="9">
  <diagram id="xSu40a7vG7VUfRqYja6q" name="Calculator">
    <mxGraphModel dx="1395" dy="722" grid="1" gridSize="10" guides="1" tooltips="1" connect="1" arrows="1" fold="1" page="1" pageScale="1" pageWidth="850" pageHeight="1100" math="0" shadow="0">
      <root>
        <mxCell id="0" />
        <mxCell id="1" parent="0" />
        <mxCell id="aRur6kqJiERIvR7GHr4X-3" value="" style="edgeStyle=orthogonalEdgeStyle;rounded=0;orthogonalLoop=1;jettySize=auto;html=1;" edge="1" parent="1" source="aRur6kqJiERIvR7GHr4X-1" target="aRur6kqJiERIvR7GHr4X-2">
          <mxGeometry relative="1" as="geometry" />
        </mxCell>
        <mxCell id="aRur6kqJiERIvR7GHr4X-1" value="Start" style="ellipse;whiteSpace=wrap;html=1;" vertex="1" parent="1">
          <mxGeometry x="230" y="90" width="120" height="80" as="geometry" />
        </mxCell>
        <mxCell id="aRur6kqJiERIvR7GHr4X-5" value="" style="edgeStyle=orthogonalEdgeStyle;rounded=0;orthogonalLoop=1;jettySize=auto;html=1;" edge="1" parent="1" source="aRur6kqJiERIvR7GHr4X-2" target="aRur6kqJiERIvR7GHr4X-4">
          <mxGeometry relative="1" as="geometry" />
        </mxCell>
        <mxCell id="aRur6kqJiERIvR7GHr4X-2" value="let current = 0, previous = 0, operation = null" style="whiteSpace=wrap;html=1;" vertex="1" parent="1">
          <mxGeometry x="195" y="230" width="190" height="60" as="geometry" />
        </mxCell>
        <mxCell id="aRur6kqJiERIvR7GHr4X-7" value="" style="edgeStyle=orthogonalEdgeStyle;rounded=0;orthogonalLoop=1;jettySize=auto;html=1;" edge="1" parent="1" source="aRur6kqJiERIvR7GHr4X-4" target="aRur6kqJiERIvR7GHr4X-6">
          <mxGeometry relative="1" as="geometry" />
        </mxCell>
        <mxCell id="aRur6kqJiERIvR7GHr4X-4" value="Get pressed key" style="shape=parallelogram;perimeter=parallelogramPerimeter;whiteSpace=wrap;html=1;fixedSize=1;" vertex="1" parent="1">
          <mxGeometry x="230" y="330" width="120" height="60" as="geometry" />
        </mxCell>
        <mxCell id="aRur6kqJiERIvR7GHr4X-8" style="edgeStyle=orthogonalEdgeStyle;rounded=0;orthogonalLoop=1;jettySize=auto;html=1;" edge="1" parent="1" source="aRur6kqJiERIvR7GHr4X-6">
          <mxGeometry relative="1" as="geometry">
            <mxPoint x="400" y="480" as="targetPoint" />
          </mxGeometry>
        </mxCell>
        <mxCell id="aRur6kqJiERIvR7GHr4X-9" value="YES" style="edgeLabel;html=1;align=center;verticalAlign=middle;resizable=0;points=[];" vertex="1" connectable="0" parent="aRur6kqJiERIvR7GHr4X-8">
          <mxGeometry x="-0.2313" y="-1" relative="1" as="geometry">
            <mxPoint as="offset" />
          </mxGeometry>
        </mxCell>
        <mxCell id="aRur6kqJiERIvR7GHr4X-39" style="edgeStyle=none;rounded=0;orthogonalLoop=1;jettySize=auto;html=1;" edge="1" parent="1" source="aRur6kqJiERIvR7GHr4X-6">
          <mxGeometry relative="1" as="geometry">
            <mxPoint x="290" y="1130" as="targetPoint" />
          </mxGeometry>
        </mxCell>
        <mxCell id="aRur6kqJiERIvR7GHr4X-6" value="key is &#39;=&#39; ?" style="rhombus;whiteSpace=wrap;html=1;" vertex="1" parent="1">
          <mxGeometry x="250" y="440" width="80" height="80" as="geometry" />
        </mxCell>
        <mxCell id="krJrS47T1g_zPMz61rcN-1" style="edgeStyle=none;rounded=0;orthogonalLoop=1;jettySize=auto;html=1;" edge="1" parent="1" source="aRur6kqJiERIvR7GHr4X-40">
          <mxGeometry relative="1" as="geometry">
            <mxPoint x="430" y="1170" as="targetPoint" />
          </mxGeometry>
        </mxCell>
        <mxCell id="aRur6kqJiERIvR7GHr4X-40" value="" style="rhombus;whiteSpace=wrap;html=1;" vertex="1" parent="1">
          <mxGeometry x="250" y="1130" width="80" height="80" as="geometry" />
        </mxCell>
        <mxCell id="krJrS47T1g_zPMz61rcN-2" value="func from page 2" style="ellipse;whiteSpace=wrap;html=1;aspect=fixed;" vertex="1" parent="1">
          <mxGeometry x="430" y="1092.5" width="155" height="155" as="geometry" />
        </mxCell>
      </root>
    </mxGraphModel>
  </diagram>
  <diagram id="_Ub66tV9P0cuUdkjwERj" name="Subtask 1">
    <mxGraphModel dx="1186" dy="614" grid="1" gridSize="10" guides="1" tooltips="1" connect="1" arrows="1" fold="1" page="1" pageScale="1" pageWidth="850" pageHeight="1100" math="0" shadow="0">
      <root>
        <mxCell id="tnbGCg5QAzMlKa8FYwe2-0" />
        <mxCell id="tnbGCg5QAzMlKa8FYwe2-1" parent="tnbGCg5QAzMlKa8FYwe2-0" />
        <mxCell id="ixreC24rwAFLtBoSGlwn-27" style="edgeStyle=none;rounded=0;orthogonalLoop=1;jettySize=auto;html=1;entryX=0.5;entryY=0;entryDx=0;entryDy=0;" edge="1" parent="tnbGCg5QAzMlKa8FYwe2-1" target="ixreC24rwAFLtBoSGlwn-3">
          <mxGeometry relative="1" as="geometry">
            <mxPoint x="385" y="160" as="sourcePoint" />
          </mxGeometry>
        </mxCell>
        <mxCell id="ixreC24rwAFLtBoSGlwn-0" value="YES" style="edgeStyle=orthogonalEdgeStyle;rounded=0;orthogonalLoop=1;jettySize=auto;html=1;" edge="1" parent="tnbGCg5QAzMlKa8FYwe2-1" source="ixreC24rwAFLtBoSGlwn-3">
          <mxGeometry relative="1" as="geometry">
            <mxPoint x="510" y="240" as="targetPoint" />
          </mxGeometry>
        </mxCell>
        <mxCell id="ixreC24rwAFLtBoSGlwn-1" value="" style="edgeStyle=orthogonalEdgeStyle;rounded=0;orthogonalLoop=1;jettySize=auto;html=1;" edge="1" parent="tnbGCg5QAzMlKa8FYwe2-1" source="ixreC24rwAFLtBoSGlwn-3" target="ixreC24rwAFLtBoSGlwn-8">
          <mxGeometry relative="1" as="geometry" />
        </mxCell>
        <mxCell id="ixreC24rwAFLtBoSGlwn-2" value="NO" style="edgeLabel;html=1;align=center;verticalAlign=middle;resizable=0;points=[];" vertex="1" connectable="0" parent="ixreC24rwAFLtBoSGlwn-1">
          <mxGeometry x="-0.1786" y="1" relative="1" as="geometry">
            <mxPoint as="offset" />
          </mxGeometry>
        </mxCell>
        <mxCell id="ixreC24rwAFLtBoSGlwn-3" value="operation is &#39;+&#39;?" style="rhombus;whiteSpace=wrap;html=1;" vertex="1" parent="tnbGCg5QAzMlKa8FYwe2-1">
          <mxGeometry x="330" y="200" width="110" height="80" as="geometry" />
        </mxCell>
        <mxCell id="ixreC24rwAFLtBoSGlwn-4" value="" style="edgeStyle=orthogonalEdgeStyle;rounded=0;orthogonalLoop=1;jettySize=auto;html=1;" edge="1" parent="tnbGCg5QAzMlKa8FYwe2-1" source="ixreC24rwAFLtBoSGlwn-8" target="ixreC24rwAFLtBoSGlwn-13">
          <mxGeometry relative="1" as="geometry" />
        </mxCell>
        <mxCell id="ixreC24rwAFLtBoSGlwn-5" value="NO" style="edgeLabel;html=1;align=center;verticalAlign=middle;resizable=0;points=[];" vertex="1" connectable="0" parent="ixreC24rwAFLtBoSGlwn-4">
          <mxGeometry x="-0.3214" y="-1" relative="1" as="geometry">
            <mxPoint as="offset" />
          </mxGeometry>
        </mxCell>
        <mxCell id="ixreC24rwAFLtBoSGlwn-6" style="edgeStyle=orthogonalEdgeStyle;rounded=0;orthogonalLoop=1;jettySize=auto;html=1;" edge="1" parent="tnbGCg5QAzMlKa8FYwe2-1" source="ixreC24rwAFLtBoSGlwn-8">
          <mxGeometry relative="1" as="geometry">
            <mxPoint x="510" y="360" as="targetPoint" />
          </mxGeometry>
        </mxCell>
        <mxCell id="ixreC24rwAFLtBoSGlwn-7" value="YES" style="edgeLabel;html=1;align=center;verticalAlign=middle;resizable=0;points=[];" vertex="1" connectable="0" parent="ixreC24rwAFLtBoSGlwn-6">
          <mxGeometry x="-0.3633" relative="1" as="geometry">
            <mxPoint as="offset" />
          </mxGeometry>
        </mxCell>
        <mxCell id="ixreC24rwAFLtBoSGlwn-8" value="operation is &#39;-&#39;?" style="rhombus;whiteSpace=wrap;html=1;" vertex="1" parent="tnbGCg5QAzMlKa8FYwe2-1">
          <mxGeometry x="330" y="320" width="110" height="80" as="geometry" />
        </mxCell>
        <mxCell id="ixreC24rwAFLtBoSGlwn-9" value="" style="edgeStyle=orthogonalEdgeStyle;rounded=0;orthogonalLoop=1;jettySize=auto;html=1;" edge="1" parent="tnbGCg5QAzMlKa8FYwe2-1" source="ixreC24rwAFLtBoSGlwn-13" target="ixreC24rwAFLtBoSGlwn-17">
          <mxGeometry relative="1" as="geometry" />
        </mxCell>
        <mxCell id="ixreC24rwAFLtBoSGlwn-10" value="NO" style="edgeLabel;html=1;align=center;verticalAlign=middle;resizable=0;points=[];" vertex="1" connectable="0" parent="ixreC24rwAFLtBoSGlwn-9">
          <mxGeometry x="-0.2071" y="-2" relative="1" as="geometry">
            <mxPoint as="offset" />
          </mxGeometry>
        </mxCell>
        <mxCell id="ixreC24rwAFLtBoSGlwn-11" style="edgeStyle=orthogonalEdgeStyle;rounded=0;orthogonalLoop=1;jettySize=auto;html=1;" edge="1" parent="tnbGCg5QAzMlKa8FYwe2-1" source="ixreC24rwAFLtBoSGlwn-13">
          <mxGeometry relative="1" as="geometry">
            <mxPoint x="510" y="480" as="targetPoint" />
          </mxGeometry>
        </mxCell>
        <mxCell id="ixreC24rwAFLtBoSGlwn-12" value="YES" style="edgeLabel;html=1;align=center;verticalAlign=middle;resizable=0;points=[];" vertex="1" connectable="0" parent="ixreC24rwAFLtBoSGlwn-11">
          <mxGeometry x="0.1265" y="-2" relative="1" as="geometry">
            <mxPoint as="offset" />
          </mxGeometry>
        </mxCell>
        <mxCell id="ixreC24rwAFLtBoSGlwn-13" value="operation is &#39;*&#39;?" style="rhombus;whiteSpace=wrap;html=1;" vertex="1" parent="tnbGCg5QAzMlKa8FYwe2-1">
          <mxGeometry x="330" y="440" width="110" height="80" as="geometry" />
        </mxCell>
        <mxCell id="ixreC24rwAFLtBoSGlwn-14" style="edgeStyle=orthogonalEdgeStyle;rounded=0;orthogonalLoop=1;jettySize=auto;html=1;" edge="1" parent="tnbGCg5QAzMlKa8FYwe2-1" source="ixreC24rwAFLtBoSGlwn-17">
          <mxGeometry relative="1" as="geometry">
            <mxPoint x="510" y="600" as="targetPoint" />
          </mxGeometry>
        </mxCell>
        <mxCell id="ixreC24rwAFLtBoSGlwn-15" value="YES" style="edgeLabel;html=1;align=center;verticalAlign=middle;resizable=0;points=[];" vertex="1" connectable="0" parent="ixreC24rwAFLtBoSGlwn-14">
          <mxGeometry x="-0.0531" relative="1" as="geometry">
            <mxPoint as="offset" />
          </mxGeometry>
        </mxCell>
        <mxCell id="ixreC24rwAFLtBoSGlwn-16" style="edgeStyle=none;rounded=0;orthogonalLoop=1;jettySize=auto;html=1;" edge="1" parent="tnbGCg5QAzMlKa8FYwe2-1" source="ixreC24rwAFLtBoSGlwn-17">
          <mxGeometry relative="1" as="geometry">
            <mxPoint x="385" y="680" as="targetPoint" />
          </mxGeometry>
        </mxCell>
        <mxCell id="ixreC24rwAFLtBoSGlwn-17" value="operation is &#39;/&#39;?" style="rhombus;whiteSpace=wrap;html=1;" vertex="1" parent="tnbGCg5QAzMlKa8FYwe2-1">
          <mxGeometry x="330" y="560" width="110" height="80" as="geometry" />
        </mxCell>
        <mxCell id="ixreC24rwAFLtBoSGlwn-18" style="edgeStyle=orthogonalEdgeStyle;rounded=0;orthogonalLoop=1;jettySize=auto;html=1;" edge="1" parent="tnbGCg5QAzMlKa8FYwe2-1" source="ixreC24rwAFLtBoSGlwn-19">
          <mxGeometry relative="1" as="geometry">
            <mxPoint x="390" y="660" as="targetPoint" />
            <Array as="points">
              <mxPoint x="720" y="240" />
            </Array>
          </mxGeometry>
        </mxCell>
        <mxCell id="ixreC24rwAFLtBoSGlwn-19" value="current = previous + current" style="rounded=0;whiteSpace=wrap;html=1;" vertex="1" parent="tnbGCg5QAzMlKa8FYwe2-1">
          <mxGeometry x="510" y="210" width="170" height="60" as="geometry" />
        </mxCell>
        <mxCell id="ixreC24rwAFLtBoSGlwn-20" style="edgeStyle=orthogonalEdgeStyle;rounded=0;orthogonalLoop=1;jettySize=auto;html=1;" edge="1" parent="tnbGCg5QAzMlKa8FYwe2-1" source="ixreC24rwAFLtBoSGlwn-21">
          <mxGeometry relative="1" as="geometry">
            <mxPoint x="720" y="600" as="targetPoint" />
          </mxGeometry>
        </mxCell>
        <mxCell id="ixreC24rwAFLtBoSGlwn-21" value="current = previous / current" style="rounded=0;whiteSpace=wrap;html=1;" vertex="1" parent="tnbGCg5QAzMlKa8FYwe2-1">
          <mxGeometry x="510" y="570" width="170" height="60" as="geometry" />
        </mxCell>
        <mxCell id="ixreC24rwAFLtBoSGlwn-22" style="edgeStyle=orthogonalEdgeStyle;rounded=0;orthogonalLoop=1;jettySize=auto;html=1;" edge="1" parent="tnbGCg5QAzMlKa8FYwe2-1" source="ixreC24rwAFLtBoSGlwn-23">
          <mxGeometry relative="1" as="geometry">
            <mxPoint x="720" y="480" as="targetPoint" />
          </mxGeometry>
        </mxCell>
        <mxCell id="ixreC24rwAFLtBoSGlwn-23" value="current = previous * current" style="rounded=0;whiteSpace=wrap;html=1;" vertex="1" parent="tnbGCg5QAzMlKa8FYwe2-1">
          <mxGeometry x="510" y="450" width="170" height="60" as="geometry" />
        </mxCell>
        <mxCell id="ixreC24rwAFLtBoSGlwn-24" style="edgeStyle=orthogonalEdgeStyle;rounded=0;orthogonalLoop=1;jettySize=auto;html=1;" edge="1" parent="tnbGCg5QAzMlKa8FYwe2-1" source="ixreC24rwAFLtBoSGlwn-25">
          <mxGeometry relative="1" as="geometry">
            <mxPoint x="720" y="360" as="targetPoint" />
          </mxGeometry>
        </mxCell>
        <mxCell id="ixreC24rwAFLtBoSGlwn-25" value="current = previous - current" style="rounded=0;whiteSpace=wrap;html=1;" vertex="1" parent="tnbGCg5QAzMlKa8FYwe2-1">
          <mxGeometry x="510" y="330" width="170" height="60" as="geometry" />
        </mxCell>
        <mxCell id="ixreC24rwAFLtBoSGlwn-29" style="edgeStyle=none;rounded=0;orthogonalLoop=1;jettySize=auto;html=1;" edge="1" parent="tnbGCg5QAzMlKa8FYwe2-1" source="ixreC24rwAFLtBoSGlwn-26">
          <mxGeometry relative="1" as="geometry">
            <mxPoint x="380" y="780" as="targetPoint" />
          </mxGeometry>
        </mxCell>
        <mxCell id="ixreC24rwAFLtBoSGlwn-26" value="previous = 0&lt;br&gt;operation = null" style="rounded=0;whiteSpace=wrap;html=1;" vertex="1" parent="tnbGCg5QAzMlKa8FYwe2-1">
          <mxGeometry x="320" y="680" width="120" height="60" as="geometry" />
        </mxCell>
        <mxCell id="ixreC24rwAFLtBoSGlwn-28" value="Handle Basic Operations" style="ellipse;whiteSpace=wrap;html=1;aspect=fixed;" vertex="1" parent="tnbGCg5QAzMlKa8FYwe2-1">
          <mxGeometry x="342.5" y="80" width="85" height="85" as="geometry" />
        </mxCell>
        <mxCell id="ixreC24rwAFLtBoSGlwn-30" value="Stop" style="ellipse;whiteSpace=wrap;html=1;aspect=fixed;" vertex="1" parent="tnbGCg5QAzMlKa8FYwe2-1">
          <mxGeometry x="340" y="780" width="80" height="80" as="geometry" />
        </mxCell>
      </root>
    </mxGraphModel>
  </diagram>
  <diagram id="KgL8j1TVmbzZvM0Fxe_Y" name="Subtask 2">
    <mxGraphModel dx="1186" dy="614" grid="1" gridSize="10" guides="1" tooltips="1" connect="1" arrows="1" fold="1" page="1" pageScale="1" pageWidth="850" pageHeight="1100" math="0" shadow="0">
      <root>
        <mxCell id="MXdnOgGrFMM8aaMA9DnN-0" />
        <mxCell id="MXdnOgGrFMM8aaMA9DnN-1" parent="MXdnOgGrFMM8aaMA9DnN-0" />
      </root>
    </mxGraphModel>
  </diagram>
  <diagram id="2tMWRjcApSkaWyBUIh5-" name="Subtask 3">
    <mxGraphModel dx="1186" dy="614" grid="1" gridSize="10" guides="1" tooltips="1" connect="1" arrows="1" fold="1" page="1" pageScale="1" pageWidth="850" pageHeight="1100" math="0" shadow="0">
      <root>
        <mxCell id="KqY_TkdUL0Amd4JFTyAv-0" />
        <mxCell id="KqY_TkdUL0Amd4JFTyAv-1" parent="KqY_TkdUL0Amd4JFTyAv-0" />
      </root>
    </mxGraphModel>
  </diagram>
  <diagram id="ILCa2D0c6T6jfXzLBnoS" name="Subtask 4">
    <mxGraphModel dx="1186" dy="614" grid="1" gridSize="10" guides="1" tooltips="1" connect="1" arrows="1" fold="1" page="1" pageScale="1" pageWidth="850" pageHeight="1100" math="0" shadow="0">
      <root>
        <mxCell id="nRZqC9c6H8t33VSVMd9p-0" />
        <mxCell id="nRZqC9c6H8t33VSVMd9p-1" parent="nRZqC9c6H8t33VSVMd9p-0" />
      </root>
    </mxGraphModel>
  </diagram>
  <diagram id="4bHGCGm5YcNtlGYW7PHf" name="Subtask 5">
    <mxGraphModel dx="1186" dy="614" grid="1" gridSize="10" guides="1" tooltips="1" connect="1" arrows="1" fold="1" page="1" pageScale="1" pageWidth="850" pageHeight="1100" math="0" shadow="0">
      <root>
        <mxCell id="dgO7bStMymKAUU4Umxn5-0" />
        <mxCell id="dgO7bStMymKAUU4Umxn5-1" parent="dgO7bStMymKAUU4Umxn5-0" />
      </root>
    </mxGraphModel>
  </diagram>
  <diagram id="FeyO5YXMeaFic8wWI-Kd" name="Subtask 6">
    <mxGraphModel dx="1186" dy="614" grid="1" gridSize="10" guides="1" tooltips="1" connect="1" arrows="1" fold="1" page="1" pageScale="1" pageWidth="850" pageHeight="1100" math="0" shadow="0">
      <root>
        <mxCell id="eFTcW0kCCDWm_a4-xO6D-0" />
        <mxCell id="eFTcW0kCCDWm_a4-xO6D-1" parent="eFTcW0kCCDWm_a4-xO6D-0" />
      </root>
    </mxGraphModel>
  </diagram>
  <diagram id="r9AOX0Bzn2MyEccz3o7b" name="Subtask 7">
    <mxGraphModel dx="1186" dy="614" grid="1" gridSize="10" guides="1" tooltips="1" connect="1" arrows="1" fold="1" page="1" pageScale="1" pageWidth="850" pageHeight="1100" math="0" shadow="0">
      <root>
        <mxCell id="JpObwRgecgmDhS3QXtVc-0" />
        <mxCell id="JpObwRgecgmDhS3QXtVc-1" parent="JpObwRgecgmDhS3QXtVc-0" />
      </root>
    </mxGraphModel>
  </diagram>
  <diagram id="mJv1V5qjeyTMCd7WpjkL" name="Subtask 8">
    <mxGraphModel dx="1186" dy="614" grid="1" gridSize="10" guides="1" tooltips="1" connect="1" arrows="1" fold="1" page="1" pageScale="1" pageWidth="850" pageHeight="1100" math="0" shadow="0">
      <root>
        <mxCell id="v4moKGsmZ7238nGYyy82-0" />
        <mxCell id="v4moKGsmZ7238nGYyy82-1" parent="v4moKGsmZ7238nGYyy82-0" />
      </root>
    </mxGraphModel>
  </diagram>
</mxfile>
